<svg xmlns="http://www.w3.org/2000/svg" viewBox="0 0 353.34 72.41"  xmlns:v="https://vecta.io/nano"><defs><clipPath id="A"><path d="M8 16.92l-3.37 1.94a2.76 2.76 0 0 0-1.29 2.26v30.5a2.94 2.94 0 0 0 1.29 2.26l26.19 14.87a2.74 2.74 0 0 0 2.58 0l14-8a30 30 0 0 1-17.67-4.31l-15.08-8.6a2.76 2.76 0 0 1-1.29-2.26V26.94a2.92 2.92 0 0 1 1.29-2.26l14.23-8.3A26.59 26.59 0 0 0 19 14.46a25.63 25.63 0 0 0-11 2.46M30.82 3.66l-14 8.08A30 30 0 0 1 33 15.09a1.07 1.07 0 0 1 .54.21l16.06 9.38a2.76 2.76 0 0 1 1.29 2.26v18.75A3.29 3.29 0 0 1 49.57 48l-14.44 8.14a26.75 26.75 0 0 0 18.53.65 16.26 16.26 0 0 0 3.13-1.3l2.91-1.61a2.77 2.77 0 0 0 1.3-2.26v-30.5a2.92 2.92 0 0 0-1.29-2.26L33.4 3.66a2.53 2.53 0 0 0-1.25-.32 3.06 3.06 0 0 0-1.33.32" fill="none"/></clipPath></defs><path d="M89.65 29.85h-4.74a2.27 2.27 0 0 1 0-4.53h14.44a2.27 2.27 0 0 1 0 4.53h-4.74v15.62a2.5 2.5 0 0 1-5 0zm34.06 6.68h0a6.87 6.87 0 0 0-6.68-7h-.22a6.74 6.74 0 0 0-6.81 6.68v.32a6.87 6.87 0 0 0 6.68 7h.22a6.74 6.74 0 0 0 6.79-6.69v-.32m-18.75 0h0a11.59 11.59 0 0 1 11.63-11.64h.33a11.56 11.56 0 0 1 12 11.1v.43a11.59 11.59 0 0 1-11.64 11.64h-.43A11.45 11.45 0 0 1 105 37v-.43M134.59 38V27.48a2.5 2.5 0 0 1 5 0v10.45c0 3.66 1.83 5.61 4.85 5.61s4.85-1.84 4.85-5.4V27.48a2.48 2.48 0 1 1 4.95 0v10.45c0 6.79-3.88 10.13-9.8 10.13s-9.81-3.34-9.81-10m36.17-1.96c2.37 0 3.77-1.29 3.77-3.24 0-2.15-1.51-3.23-3.88-3.23h-5v6.47zm-10-8.41a2.43 2.43 0 0 1 2.47-2.48h7.87a9.28 9.28 0 0 1 6.57 2.27 7.06 7.06 0 0 1 1.94 5.17 6.85 6.85 0 0 1-4.52 6.9l3.44 4.2a2.59 2.59 0 0 1 .76 1.94 2.28 2.28 0 0 1-2.28 2.31h-.11a3 3 0 0 1-2.48-1.29l-4.85-6.14h-4v4.95a2.5 2.5 0 1 1-5 0zm25.08-.21a2.5 2.5 0 1 1 5 0v18a2.5 2.5 0 1 1-5 0zm11.75 17.89a2.42 2.42 0 0 1-1-1.84 2.21 2.21 0 0 1 2.26-2.26 2.18 2.18 0 0 1 1.4.43 9.3 9.3 0 0 0 5.71 2c2.05 0 3.24-.76 3.24-2.16s-.76-1.94-4.53-2.8c-4.53-1.18-7.43-2.37-7.43-6.89 0-4.1 3.23-6.79 7.86-6.79a13 13 0 0 1 7.11 2 2.46 2.46 0 0 1 1.19 1.73 2.21 2.21 0 0 1-2.26 2.26 3 3 0 0 1-1.3-.32 9.14 9.14 0 0 0-4.74-1.51c-1.94 0-2.91.86-2.91 1.94 0 1.51 1 1.94 4.85 2.91 4.53 1.18 7.11 2.8 7.11 6.79 0 4.52-3.44 7-8.3 7a14.78 14.78 0 0 1-8.29-2.58m22.66-17.7a2.43 2.43 0 0 1 2.48-2.47h.53a2.43 2.43 0 0 1 2.27 1.29l6 9.81 6-9.81a2.44 2.44 0 0 1 2.27-1.29h.54a2.43 2.43 0 0 1 2.48 2.47v17.89a2.5 2.5 0 1 1-5 0V34.16l-4.31 6.68a2.2 2.2 0 0 1-3.12 1 2.07 2.07 0 0 1-1-1l-4.21-6.57v11.31a2.37 2.37 0 0 1-4.74 0zm35.34 1.3h-7.11v-3.67h18.32v3.67h-7.11v18.85h-4.1V28.88zm17.24-3.67h3.99v22.52h-3.99zm10.56 11.32h0a11.46 11.46 0 0 1 11.32-11.64h.28a12.57 12.57 0 0 1 8.62 3l-2.48 3a8.66 8.66 0 0 0-6.25-2.48 7.75 7.75 0 0 0-7.32 8c0 4.63 3 8.08 7.65 8.08a8.68 8.68 0 0 0 5.39-1.72v-4.2h-5.72v-3.33h9.59v9.48a14.27 14.27 0 0 1-9.37 3.55 11.11 11.11 0 0 1-11.64-10.66 4 4 0 0 1-.11-1.08m27.84-11.32h16.71v3.56H315.2v5.82h11.31v3.56H315.2v6.03h12.93v3.55H311.2V25.21zm32.98 11.21c2.8 0 4.63-1.51 4.63-3.77s-1.72-3.77-4.63-3.77h-5.71v7.54zm-9.81-11.21h10a8.85 8.85 0 0 1 6.46 2.27 6.24 6.24 0 0 1 1.83 4.85 6.74 6.74 0 0 1-5.39 6.89l6 8.52h-4.63l-5.5-7.87h-5v7.87h-4zM8 16.92l-3.37 1.94a2.76 2.76 0 0 0-1.29 2.26v30.5a2.94 2.94 0 0 0 1.29 2.26l26.19 14.87a2.74 2.74 0 0 0 2.58 0l14-8a30 30 0 0 1-17.67-4.31l-15.08-8.6a2.77 2.77 0 0 1-1.29-2.26V26.94a2.92 2.92 0 0 1 1.29-2.26l14.23-8.3A26.15 26.15 0 0 0 8 16.92M30.82 3.66l-14 8.08A30 30 0 0 1 33 15.09a1.07 1.07 0 0 1 .54.21l16.06 9.38a2.76 2.76 0 0 1 1.29 2.26v18.75A3.29 3.29 0 0 1 49.57 48l-14.44 8.14a26.81 26.81 0 0 0 18.53.65 16.26 16.26 0 0 0 3.13-1.3l2.91-1.61a2.77 2.77 0 0 0 1.3-2.26v-30.5a2.92 2.92 0 0 0-1.29-2.26L33.4 3.66a2.74 2.74 0 0 0-2.58 0" fill="#fff"/><g clip-path="url(#A)"><path d="M0 0h64.33v72.41H0z" fill="#fff"/></g></svg>